<?xml version="1.0" encoding="utf-8"?>
<svg xmlns="http://www.w3.org/2000/svg" xmlns:xlink="http://www.w3.org/1999/xlink" width="600" height="400" viewBox="0 0 2400 1600">
<defs>
  <clipPath id="clip740">
    <rect x="0" y="0" width="2400" height="1600"/>
  </clipPath>
</defs>
<path clip-path="url(#clip740)" d="M0 1600 L2400 1600 L2400 0 L0 0  Z" fill="#ffffff" fill-rule="evenodd" fill-opacity="1"/>
<defs>
  <clipPath id="clip741">
    <rect x="480" y="0" width="1681" height="1600"/>
  </clipPath>
</defs>
<path clip-path="url(#clip740)" d="M169.121 1486.45 L2352.76 1486.45 L2352.76 47.2441 L169.121 47.2441  Z" fill="#ffffff" fill-rule="evenodd" fill-opacity="1"/>
<defs>
  <clipPath id="clip742">
    <rect x="169" y="47" width="2185" height="1440"/>
  </clipPath>
</defs>
<polyline clip-path="url(#clip742)" style="stroke:#000000; stroke-linecap:round; stroke-linejoin:round; stroke-width:2; stroke-opacity:0.1; fill:none" points="459.815,1486.45 459.815,47.2441 "/>
<polyline clip-path="url(#clip742)" style="stroke:#000000; stroke-linecap:round; stroke-linejoin:round; stroke-width:2; stroke-opacity:0.1; fill:none" points="917.6,1486.45 917.6,47.2441 "/>
<polyline clip-path="url(#clip742)" style="stroke:#000000; stroke-linecap:round; stroke-linejoin:round; stroke-width:2; stroke-opacity:0.1; fill:none" points="1375.38,1486.45 1375.38,47.2441 "/>
<polyline clip-path="url(#clip742)" style="stroke:#000000; stroke-linecap:round; stroke-linejoin:round; stroke-width:2; stroke-opacity:0.1; fill:none" points="1833.17,1486.45 1833.17,47.2441 "/>
<polyline clip-path="url(#clip742)" style="stroke:#000000; stroke-linecap:round; stroke-linejoin:round; stroke-width:2; stroke-opacity:0.1; fill:none" points="2290.95,1486.45 2290.95,47.2441 "/>
<polyline clip-path="url(#clip740)" style="stroke:#000000; stroke-linecap:round; stroke-linejoin:round; stroke-width:4; stroke-opacity:1; fill:none" points="169.121,1486.45 2352.76,1486.45 "/>
<polyline clip-path="url(#clip740)" style="stroke:#000000; stroke-linecap:round; stroke-linejoin:round; stroke-width:4; stroke-opacity:1; fill:none" points="459.815,1486.45 459.815,1467.55 "/>
<polyline clip-path="url(#clip740)" style="stroke:#000000; stroke-linecap:round; stroke-linejoin:round; stroke-width:4; stroke-opacity:1; fill:none" points="917.6,1486.45 917.6,1467.55 "/>
<polyline clip-path="url(#clip740)" style="stroke:#000000; stroke-linecap:round; stroke-linejoin:round; stroke-width:4; stroke-opacity:1; fill:none" points="1375.38,1486.45 1375.38,1467.55 "/>
<polyline clip-path="url(#clip740)" style="stroke:#000000; stroke-linecap:round; stroke-linejoin:round; stroke-width:4; stroke-opacity:1; fill:none" points="1833.17,1486.45 1833.17,1467.55 "/>
<polyline clip-path="url(#clip740)" style="stroke:#000000; stroke-linecap:round; stroke-linejoin:round; stroke-width:4; stroke-opacity:1; fill:none" points="2290.95,1486.45 2290.95,1467.55 "/>
<path clip-path="url(#clip740)" d="M454.468 1544.91 L470.787 1544.91 L470.787 1548.85 L448.843 1548.85 L448.843 1544.91 Q451.505 1542.16 456.088 1537.53 Q460.694 1532.88 461.875 1531.53 Q464.12 1529.01 465 1527.27 Q465.903 1525.51 465.903 1523.82 Q465.903 1521.07 463.958 1519.33 Q462.037 1517.6 458.935 1517.6 Q456.736 1517.6 454.282 1518.36 Q451.852 1519.13 449.074 1520.68 L449.074 1515.95 Q451.898 1514.82 454.352 1514.24 Q456.806 1513.66 458.843 1513.66 Q464.213 1513.66 467.407 1516.35 Q470.602 1519.03 470.602 1523.52 Q470.602 1525.65 469.792 1527.57 Q469.005 1529.47 466.898 1532.07 Q466.319 1532.74 463.218 1535.95 Q460.116 1539.15 454.468 1544.91 Z" fill="#000000" fill-rule="nonzero" fill-opacity="1" /><path clip-path="url(#clip740)" d="M920.609 1518.36 L908.804 1536.81 L920.609 1536.81 L920.609 1518.36 M919.382 1514.29 L925.262 1514.29 L925.262 1536.81 L930.192 1536.81 L930.192 1540.7 L925.262 1540.7 L925.262 1548.85 L920.609 1548.85 L920.609 1540.7 L905.007 1540.7 L905.007 1536.19 L919.382 1514.29 Z" fill="#000000" fill-rule="nonzero" fill-opacity="1" /><path clip-path="url(#clip740)" d="M1375.79 1529.7 Q1372.64 1529.7 1370.79 1531.86 Q1368.96 1534.01 1368.96 1537.76 Q1368.96 1541.49 1370.79 1543.66 Q1372.64 1545.82 1375.79 1545.82 Q1378.94 1545.82 1380.77 1543.66 Q1382.62 1541.49 1382.62 1537.76 Q1382.62 1534.01 1380.77 1531.86 Q1378.94 1529.7 1375.79 1529.7 M1385.07 1515.05 L1385.07 1519.31 Q1383.31 1518.48 1381.51 1518.04 Q1379.73 1517.6 1377.97 1517.6 Q1373.34 1517.6 1370.88 1520.72 Q1368.45 1523.85 1368.1 1530.17 Q1369.47 1528.15 1371.53 1527.09 Q1373.59 1526 1376.07 1526 Q1381.28 1526 1384.29 1529.17 Q1387.32 1532.32 1387.32 1537.76 Q1387.32 1543.08 1384.17 1546.3 Q1381.02 1549.52 1375.79 1549.52 Q1369.79 1549.52 1366.62 1544.94 Q1363.45 1540.33 1363.45 1531.6 Q1363.45 1523.41 1367.34 1518.55 Q1371.23 1513.66 1377.78 1513.66 Q1379.54 1513.66 1381.32 1514.01 Q1383.13 1514.36 1385.07 1515.05 Z" fill="#000000" fill-rule="nonzero" fill-opacity="1" /><path clip-path="url(#clip740)" d="M1833.17 1532.44 Q1829.84 1532.44 1827.92 1534.22 Q1826.02 1536 1826.02 1539.13 Q1826.02 1542.25 1827.92 1544.03 Q1829.84 1545.82 1833.17 1545.82 Q1836.5 1545.82 1838.42 1544.03 Q1840.35 1542.23 1840.35 1539.13 Q1840.35 1536 1838.42 1534.22 Q1836.53 1532.44 1833.17 1532.44 M1828.49 1530.45 Q1825.48 1529.7 1823.79 1527.64 Q1822.13 1525.58 1822.13 1522.62 Q1822.13 1518.48 1825.07 1516.07 Q1828.03 1513.66 1833.17 1513.66 Q1838.33 1513.66 1841.27 1516.07 Q1844.21 1518.48 1844.21 1522.62 Q1844.21 1525.58 1842.52 1527.64 Q1840.86 1529.7 1837.87 1530.45 Q1841.25 1531.23 1843.12 1533.52 Q1845.02 1535.82 1845.02 1539.13 Q1845.02 1544.15 1841.94 1546.83 Q1838.89 1549.52 1833.17 1549.52 Q1827.45 1549.52 1824.37 1546.83 Q1821.32 1544.15 1821.32 1539.13 Q1821.32 1535.82 1823.22 1533.52 Q1825.11 1531.23 1828.49 1530.45 M1826.78 1523.06 Q1826.78 1525.75 1828.45 1527.25 Q1830.14 1528.76 1833.17 1528.76 Q1836.18 1528.76 1837.87 1527.25 Q1839.58 1525.75 1839.58 1523.06 Q1839.58 1520.38 1837.87 1518.87 Q1836.18 1517.37 1833.17 1517.37 Q1830.14 1517.37 1828.45 1518.87 Q1826.78 1520.38 1826.78 1523.06 Z" fill="#000000" fill-rule="nonzero" fill-opacity="1" /><path clip-path="url(#clip740)" d="M2265.64 1544.91 L2273.28 1544.91 L2273.28 1518.55 L2264.97 1520.21 L2264.97 1515.95 L2273.24 1514.29 L2277.91 1514.29 L2277.91 1544.91 L2285.55 1544.91 L2285.55 1548.85 L2265.64 1548.85 L2265.64 1544.91 Z" fill="#000000" fill-rule="nonzero" fill-opacity="1" /><path clip-path="url(#clip740)" d="M2304.99 1517.37 Q2301.38 1517.37 2299.55 1520.93 Q2297.75 1524.47 2297.75 1531.6 Q2297.75 1538.71 2299.55 1542.27 Q2301.38 1545.82 2304.99 1545.82 Q2308.63 1545.82 2310.43 1542.27 Q2312.26 1538.71 2312.26 1531.6 Q2312.26 1524.47 2310.43 1520.93 Q2308.63 1517.37 2304.99 1517.37 M2304.99 1513.66 Q2310.8 1513.66 2313.86 1518.27 Q2316.94 1522.85 2316.94 1531.6 Q2316.94 1540.33 2313.86 1544.94 Q2310.8 1549.52 2304.99 1549.52 Q2299.18 1549.52 2296.11 1544.94 Q2293.05 1540.33 2293.05 1531.6 Q2293.05 1522.85 2296.11 1518.27 Q2299.18 1513.66 2304.99 1513.66 Z" fill="#000000" fill-rule="nonzero" fill-opacity="1" /><polyline clip-path="url(#clip742)" style="stroke:#000000; stroke-linecap:round; stroke-linejoin:round; stroke-width:2; stroke-opacity:0.1; fill:none" points="169.121,1459.43 2352.76,1459.43 "/>
<polyline clip-path="url(#clip742)" style="stroke:#000000; stroke-linecap:round; stroke-linejoin:round; stroke-width:2; stroke-opacity:0.1; fill:none" points="169.121,1116.57 2352.76,1116.57 "/>
<polyline clip-path="url(#clip742)" style="stroke:#000000; stroke-linecap:round; stroke-linejoin:round; stroke-width:2; stroke-opacity:0.1; fill:none" points="169.121,773.703 2352.76,773.703 "/>
<polyline clip-path="url(#clip742)" style="stroke:#000000; stroke-linecap:round; stroke-linejoin:round; stroke-width:2; stroke-opacity:0.1; fill:none" points="169.121,430.84 2352.76,430.84 "/>
<polyline clip-path="url(#clip742)" style="stroke:#000000; stroke-linecap:round; stroke-linejoin:round; stroke-width:2; stroke-opacity:0.1; fill:none" points="169.121,87.9763 2352.76,87.9763 "/>
<polyline clip-path="url(#clip740)" style="stroke:#000000; stroke-linecap:round; stroke-linejoin:round; stroke-width:4; stroke-opacity:1; fill:none" points="169.121,1486.45 169.121,47.2441 "/>
<polyline clip-path="url(#clip740)" style="stroke:#000000; stroke-linecap:round; stroke-linejoin:round; stroke-width:4; stroke-opacity:1; fill:none" points="169.121,1459.43 188.019,1459.43 "/>
<polyline clip-path="url(#clip740)" style="stroke:#000000; stroke-linecap:round; stroke-linejoin:round; stroke-width:4; stroke-opacity:1; fill:none" points="169.121,1116.57 188.019,1116.57 "/>
<polyline clip-path="url(#clip740)" style="stroke:#000000; stroke-linecap:round; stroke-linejoin:round; stroke-width:4; stroke-opacity:1; fill:none" points="169.121,773.703 188.019,773.703 "/>
<polyline clip-path="url(#clip740)" style="stroke:#000000; stroke-linecap:round; stroke-linejoin:round; stroke-width:4; stroke-opacity:1; fill:none" points="169.121,430.84 188.019,430.84 "/>
<polyline clip-path="url(#clip740)" style="stroke:#000000; stroke-linecap:round; stroke-linejoin:round; stroke-width:4; stroke-opacity:1; fill:none" points="169.121,87.9763 188.019,87.9763 "/>
<path clip-path="url(#clip740)" d="M121.177 1445.23 Q117.566 1445.23 115.737 1448.79 Q113.932 1452.34 113.932 1459.46 Q113.932 1466.57 115.737 1470.14 Q117.566 1473.68 121.177 1473.68 Q124.811 1473.68 126.617 1470.14 Q128.445 1466.57 128.445 1459.46 Q128.445 1452.34 126.617 1448.79 Q124.811 1445.23 121.177 1445.23 M121.177 1441.53 Q126.987 1441.53 130.043 1446.13 Q133.121 1450.72 133.121 1459.46 Q133.121 1468.19 130.043 1472.8 Q126.987 1477.38 121.177 1477.38 Q115.367 1477.38 112.288 1472.8 Q109.233 1468.19 109.233 1459.46 Q109.233 1450.72 112.288 1446.13 Q115.367 1441.53 121.177 1441.53 Z" fill="#000000" fill-rule="nonzero" fill-opacity="1" /><path clip-path="url(#clip740)" d="M86.0382 1129.91 L102.358 1129.91 L102.358 1133.85 L80.4133 1133.85 L80.4133 1129.91 Q83.0753 1127.16 87.6586 1122.53 Q92.2651 1117.87 93.4456 1116.53 Q95.691 1114.01 96.5706 1112.27 Q97.4734 1110.51 97.4734 1108.82 Q97.4734 1106.07 95.5289 1104.33 Q93.6076 1102.6 90.5058 1102.6 Q88.3067 1102.6 85.8531 1103.36 Q83.4225 1104.12 80.6447 1105.68 L80.6447 1100.95 Q83.4688 1099.82 85.9225 1099.24 Q88.3762 1098.66 90.4132 1098.66 Q95.7836 1098.66 98.978 1101.35 Q102.172 1104.03 102.172 1108.52 Q102.172 1110.65 101.362 1112.57 Q100.575 1114.47 98.4687 1117.06 Q97.89 1117.74 94.7882 1120.95 Q91.6864 1124.15 86.0382 1129.91 Z" fill="#000000" fill-rule="nonzero" fill-opacity="1" /><path clip-path="url(#clip740)" d="M112.219 1099.29 L130.575 1099.29 L130.575 1103.22 L116.501 1103.22 L116.501 1111.69 Q117.52 1111.35 118.538 1111.18 Q119.557 1111 120.575 1111 Q126.362 1111 129.742 1114.17 Q133.121 1117.34 133.121 1122.76 Q133.121 1128.34 129.649 1131.44 Q126.177 1134.52 119.857 1134.52 Q117.682 1134.52 115.413 1134.15 Q113.168 1133.78 110.76 1133.04 L110.76 1128.34 Q112.844 1129.47 115.066 1130.03 Q117.288 1130.58 119.765 1130.58 Q123.77 1130.58 126.107 1128.48 Q128.445 1126.37 128.445 1122.76 Q128.445 1119.15 126.107 1117.04 Q123.77 1114.93 119.765 1114.93 Q117.89 1114.93 116.015 1115.35 Q114.163 1115.77 112.219 1116.65 L112.219 1099.29 Z" fill="#000000" fill-rule="nonzero" fill-opacity="1" /><path clip-path="url(#clip740)" d="M81.0614 756.423 L99.4178 756.423 L99.4178 760.358 L85.3438 760.358 L85.3438 768.831 Q86.3623 768.483 87.3808 768.321 Q88.3993 768.136 89.4178 768.136 Q95.2049 768.136 98.5845 771.307 Q101.964 774.479 101.964 779.895 Q101.964 785.474 98.4919 788.576 Q95.0197 791.655 88.7003 791.655 Q86.5243 791.655 84.2558 791.284 Q82.0105 790.914 79.6031 790.173 L79.6031 785.474 Q81.6864 786.608 83.9086 787.164 Q86.1308 787.719 88.6077 787.719 Q92.6123 787.719 94.9502 785.613 Q97.2882 783.506 97.2882 779.895 Q97.2882 776.284 94.9502 774.178 Q92.6123 772.071 88.6077 772.071 Q86.7327 772.071 84.8577 772.488 Q83.0058 772.905 81.0614 773.784 L81.0614 756.423 Z" fill="#000000" fill-rule="nonzero" fill-opacity="1" /><path clip-path="url(#clip740)" d="M121.177 759.502 Q117.566 759.502 115.737 763.067 Q113.932 766.608 113.932 773.738 Q113.932 780.844 115.737 784.409 Q117.566 787.951 121.177 787.951 Q124.811 787.951 126.617 784.409 Q128.445 780.844 128.445 773.738 Q128.445 766.608 126.617 763.067 Q124.811 759.502 121.177 759.502 M121.177 755.798 Q126.987 755.798 130.043 760.405 Q133.121 764.988 133.121 773.738 Q133.121 782.465 130.043 787.071 Q126.987 791.655 121.177 791.655 Q115.367 791.655 112.288 787.071 Q109.233 782.465 109.233 773.738 Q109.233 764.988 112.288 760.405 Q115.367 755.798 121.177 755.798 Z" fill="#000000" fill-rule="nonzero" fill-opacity="1" /><path clip-path="url(#clip740)" d="M80.8299 413.56 L103.052 413.56 L103.052 415.55 L90.5058 448.12 L85.6216 448.12 L97.4271 417.495 L80.8299 417.495 L80.8299 413.56 Z" fill="#000000" fill-rule="nonzero" fill-opacity="1" /><path clip-path="url(#clip740)" d="M112.219 413.56 L130.575 413.56 L130.575 417.495 L116.501 417.495 L116.501 425.967 Q117.52 425.62 118.538 425.458 Q119.557 425.273 120.575 425.273 Q126.362 425.273 129.742 428.444 Q133.121 431.615 133.121 437.032 Q133.121 442.611 129.649 445.712 Q126.177 448.791 119.857 448.791 Q117.682 448.791 115.413 448.421 Q113.168 448.05 110.76 447.31 L110.76 442.611 Q112.844 443.745 115.066 444.3 Q117.288 444.856 119.765 444.856 Q123.77 444.856 126.107 442.749 Q128.445 440.643 128.445 437.032 Q128.445 433.421 126.107 431.314 Q123.77 429.208 119.765 429.208 Q117.89 429.208 116.015 429.624 Q114.163 430.041 112.219 430.921 L112.219 413.56 Z" fill="#000000" fill-rule="nonzero" fill-opacity="1" /><path clip-path="url(#clip740)" d="M51.6634 101.321 L59.3023 101.321 L59.3023 74.9555 L50.9921 76.6222 L50.9921 72.3629 L59.256 70.6963 L63.9319 70.6963 L63.9319 101.321 L71.5707 101.321 L71.5707 105.256 L51.6634 105.256 L51.6634 101.321 Z" fill="#000000" fill-rule="nonzero" fill-opacity="1" /><path clip-path="url(#clip740)" d="M91.0151 73.775 Q87.404 73.775 85.5753 77.3398 Q83.7697 80.8814 83.7697 88.011 Q83.7697 95.1174 85.5753 98.6822 Q87.404 102.224 91.0151 102.224 Q94.6493 102.224 96.4548 98.6822 Q98.2835 95.1174 98.2835 88.011 Q98.2835 80.8814 96.4548 77.3398 Q94.6493 73.775 91.0151 73.775 M91.0151 70.0713 Q96.8252 70.0713 99.8808 74.6777 Q102.959 79.261 102.959 88.011 Q102.959 96.7378 99.8808 101.344 Q96.8252 105.928 91.0151 105.928 Q85.2049 105.928 82.1262 101.344 Q79.0707 96.7378 79.0707 88.011 Q79.0707 79.261 82.1262 74.6777 Q85.2049 70.0713 91.0151 70.0713 Z" fill="#000000" fill-rule="nonzero" fill-opacity="1" /><path clip-path="url(#clip740)" d="M121.177 73.775 Q117.566 73.775 115.737 77.3398 Q113.932 80.8814 113.932 88.011 Q113.932 95.1174 115.737 98.6822 Q117.566 102.224 121.177 102.224 Q124.811 102.224 126.617 98.6822 Q128.445 95.1174 128.445 88.011 Q128.445 80.8814 126.617 77.3398 Q124.811 73.775 121.177 73.775 M121.177 70.0713 Q126.987 70.0713 130.043 74.6777 Q133.121 79.261 133.121 88.011 Q133.121 96.7378 130.043 101.344 Q126.987 105.928 121.177 105.928 Q115.367 105.928 112.288 101.344 Q109.233 96.7378 109.233 88.011 Q109.233 79.261 112.288 74.6777 Q115.367 70.0713 121.177 70.0713 Z" fill="#000000" fill-rule="nonzero" fill-opacity="1" /><polyline clip-path="url(#clip742)" style="stroke:#009af9; stroke-linecap:round; stroke-linejoin:round; stroke-width:4; stroke-opacity:1; fill:none" points="230.922,1445.72 459.815,1404.57 688.707,1336 917.6,1240 1146.49,1116.57 1375.38,965.707 1604.28,787.418 1833.17,581.7 2062.06,348.553 2290.95,87.9763 "/>
<path clip-path="url(#clip740)" d="M241.909 198.898 L512.703 198.898 L512.703 95.2176 L241.909 95.2176  Z" fill="#ffffff" fill-rule="evenodd" fill-opacity="1"/>
<polyline clip-path="url(#clip740)" style="stroke:#000000; stroke-linecap:round; stroke-linejoin:round; stroke-width:4; stroke-opacity:1; fill:none" points="241.909,198.898 512.703,198.898 512.703,95.2176 241.909,95.2176 241.909,198.898 "/>
<polyline clip-path="url(#clip740)" style="stroke:#009af9; stroke-linecap:round; stroke-linejoin:round; stroke-width:4; stroke-opacity:1; fill:none" points="266.172,147.058 411.747,147.058 "/>
<path clip-path="url(#clip740)" d="M449.853 166.745 Q448.047 171.375 446.334 172.787 Q444.621 174.199 441.751 174.199 L438.348 174.199 L438.348 170.634 L440.848 170.634 Q442.607 170.634 443.579 169.8 Q444.552 168.967 445.732 165.865 L446.496 163.921 L436.01 138.412 L440.524 138.412 L448.626 158.689 L456.727 138.412 L461.241 138.412 L449.853 166.745 Z" fill="#000000" fill-rule="nonzero" fill-opacity="1" /><path clip-path="url(#clip740)" d="M468.533 160.402 L476.172 160.402 L476.172 134.037 L467.862 135.703 L467.862 131.444 L476.126 129.778 L480.801 129.778 L480.801 160.402 L488.44 160.402 L488.44 164.338 L468.533 164.338 L468.533 160.402 Z" fill="#000000" fill-rule="nonzero" fill-opacity="1" /></svg>
